<svg xmlns="http://www.w3.org/2000/svg" viewBox="0 0 512 512">
  <!-- Gradient background -->
  <defs>
    <linearGradient id="bgGrad" x1="0%" y1="0%" x2="100%" y2="100%">
      <stop offset="0%" style="stop-color:#667eea;stop-opacity:1" />
      <stop offset="100%" style="stop-color:#764ba2;stop-opacity:1" />
    </linearGradient>
    <linearGradient id="planeGrad" x1="0%" y1="0%" x2="100%" y2="100%">
      <stop offset="0%" style="stop-color:#ffd700;stop-opacity:1" />
      <stop offset="100%" style="stop-color:#ffed4e;stop-opacity:1" />
    </linearGradient>
    <filter id="glow">
      <feGaussianBlur stdDeviation="4" result="coloredBlur"/>
      <feMerge>
        <feMergeNode in="coloredBlur"/>
        <feMergeNode in="SourceGraphic"/>
      </feMerge>
    </filter>
  </defs>
  
  <rect width="512" height="512" fill="url(#bgGrad)" rx="80"/>
  
  <!-- Globe with modern style -->
  <g opacity="0.9">
    <circle cx="256" cy="256" r="145" fill="#5a67d8" opacity="0.3"/>
    <circle cx="256" cy="256" r="140" fill="none" stroke="#fff" stroke-width="3" opacity="0.6"/>
    <ellipse cx="256" cy="256" rx="140" ry="45" fill="none" stroke="#fff" stroke-width="2" opacity="0.5"/>
    <ellipse cx="256" cy="256" rx="45" ry="140" fill="none" stroke="#fff" stroke-width="2" opacity="0.5"/>
    <ellipse cx="256" cy="256" rx="100" ry="30" fill="none" stroke="#fff" stroke-width="2" opacity="0.4"/>
    <line x1="256" y1="116" x2="256" y2="396" stroke="#fff" stroke-width="2" opacity="0.5"/>
  </g>
  
  <!-- Modern sleek plane with gradient -->
  <g filter="url(#glow)">
    <path d="M 380 200 L 360 190 L 300 200 L 270 140 L 250 140 L 265 200 L 230 210 L 215 185 L 205 185 L 210 210 L 205 235 L 215 235 L 230 210 L 265 220 L 250 280 L 270 280 L 300 220 L 360 230 L 380 220 Z" 
          fill="url(#planeGrad)" 
          stroke="#fff" 
          stroke-width="2"/>
  </g>
  
  <!-- Code brackets representing agentic code -->
  <g fill="#00ffaa" opacity="0.8" font-family="monospace" font-size="40" font-weight="bold">
    <text x="150" y="160">&lt;</text>
    <text x="340" y="160">/&gt;</text>
  </g>
  
  <!-- AI/Agent nodes connected with lines -->
  <g stroke="#00ffaa" stroke-width="2" opacity="0.6">
    <line x1="180" y1="340" x2="220" y2="360"/>
    <line x1="280" y1="360" x2="320" y2="340"/>
    <line x1="220" y1="360" x2="280" y2="360"/>
  </g>
  <circle cx="180" cy="340" r="8" fill="#00ffaa" opacity="0.8"/>
  <circle cx="220" cy="360" r="8" fill="#00ffaa" opacity="0.8"/>
  <circle cx="280" cy="360" r="8" fill="#00ffaa" opacity="0.8"/>
  <circle cx="320" cy="340" r="8" fill="#00ffaa" opacity="0.8"/>
  
  <!-- Sparkle effects -->
  <g fill="#fff" opacity="0.9">
    <circle cx="400" cy="100" r="3"/>
    <circle cx="420" cy="130" r="2"/>
    <circle cx="90" cy="110" r="3"/>
    <circle cx="110" cy="90" r="2"/>
    <circle cx="390" cy="380" r="3"/>
    <circle cx="100" cy="400" r="2"/>
  </g>
</svg>
